<?xml version="1.0" encoding="UTF-8"?>
<svg width="800px" height="800px" viewBox="0 0 24 24" fill="none" xmlns="http://www.w3.org/2000/svg">
    <path d="M12 14.5C13.3807 14.5 14.5 13.3807 14.5 12C14.5 10.6193 13.3807 9.5 12 9.5C10.6193 9.5 9.5 10.6193 9.5 12C9.5 13.3807 10.6193 14.5 12 14.5Z" fill="#61DAFB"/>
    <path d="M12 2C13.3807 2 14.5 3.11929 14.5 4.5C14.5 5.88071 13.3807 7 12 7C10.6193 7 9.5 5.88071 9.5 4.5C9.5 3.11929 10.6193 2 12 2Z" fill="#61DAFB"/>
    <path d="M12 17C13.3807 17 14.5 18.1193 14.5 19.5C14.5 20.8807 13.3807 22 12 22C10.6193 22 9.5 20.8807 9.5 19.5C9.5 18.1193 10.6193 17 12 17Z" fill="#61DAFB"/>
    <path d="M4.5 12C4.5 10.6193 3.38071 9.5 2 9.5C0.619288 9.5 -0.5 10.6193 -0.5 12C-0.5 13.3807 0.619288 14.5 2 14.5C3.38071 14.5 4.5 13.3807 4.5 12Z" fill="#61DAFB"/>
    <path d="M22 12C22 10.6193 20.8807 9.5 19.5 9.5C18.1193 9.5 17 10.6193 17 12C17 13.3807 18.1193 14.5 19.5 14.5C20.8807 14.5 22 13.3807 22 12Z" fill="#61DAFB"/>
    <path d="M7 7C7 5.61929 5.88071 4.5 4.5 4.5C3.11929 4.5 2 5.61929 2 7C2 8.38071 3.11929 9.5 4.5 9.5C5.88071 9.5 7 8.38071 7 7Z" fill="#61DAFB"/>
    <path d="M22 7C22 5.61929 20.8807 4.5 19.5 4.5C18.1193 4.5 17 5.61929 17 7C17 8.38071 18.1193 9.5 19.5 9.5C20.8807 9.5 22 8.38071 22 7Z" fill="#61DAFB"/>
    <path d="M7 17C7 15.6193 5.88071 14.5 4.5 14.5C3.11929 14.5 2 15.6193 2 17C2 18.3807 3.11929 19.5 4.5 19.5C5.88071 19.5 7 18.3807 7 17Z" fill="#61DAFB"/>
    <path d="M22 17C22 15.6193 20.8807 14.5 19.5 14.5C18.1193 14.5 17 15.6193 17 17C17 18.3807 18.1193 19.5 19.5 19.5C20.8807 19.5 22 18.3807 22 17Z" fill="#61DAFB"/>
</svg> 